HIERARCHY
ROOT Hips
{
	OFFSET 0.000000 0.000000 0.000000
	CHANNELS 6 Xposition Yposition Zposition Zrotation Yrotation Xrotation 
	JOINT LeftUpLeg_virtual
	{
		OFFSET 0.000000 0.000000 0.000000
		CHANNELS 3 Zrotation Yrotation Xrotation
		JOINT LeftUpLeg
		{
			OFFSET 8.479694 -4.795517 -0.379053
			CHANNELS 3 Zrotation Yrotation Xrotation
			JOINT LeftLeg
			{
				OFFSET 0.485052 -32.551468 0.112863
				CHANNELS 3 Zrotation Yrotation Xrotation
				JOINT LeftFoot
				{
					OFFSET 0.438033 -32.635670 -3.012641
					CHANNELS 3 Zrotation Yrotation Xrotation
					JOINT LeftToeBase
					{
						OFFSET 0.970169 -13.225353 11.864223
						CHANNELS 3 Zrotation Yrotation Xrotation
						End Site
						{
							OFFSET 0.000000 0.000000 0.000000
						}
					}
				}
			}
		}
	}
	JOINT RightUpLeg_virtual
	{
		OFFSET 0.000000 0.000000 0.000000
		CHANNELS 3 Zrotation Yrotation Xrotation
		JOINT RightUpLeg
		{
			OFFSET -8.479694 -4.795517 -0.379053
			CHANNELS 3 Zrotation Yrotation Xrotation
			JOINT RightLeg
			{
				OFFSET -0.484100 -32.551483 0.112903
				CHANNELS 3 Zrotation Yrotation Xrotation
				JOINT RightFoot
				{
					OFFSET -0.438985 -32.635651 -3.012681
					CHANNELS 3 Zrotation Yrotation Xrotation
					JOINT RightToeBase
					{
						OFFSET -0.970169 -13.225354 11.864223
						CHANNELS 3 Zrotation Yrotation Xrotation
						End Site
						{
							OFFSET 0.000000 0.000000 0.000000
						}
					}
				}
			}
		}
	}
	JOINT Spine_virtual
	{
		OFFSET 0.000000 0.000000 0.000000
		CHANNELS 3 Zrotation Yrotation Xrotation
		JOINT Spine
		{
			OFFSET 0.000000 7.722015 1.166203
			CHANNELS 3 Zrotation Yrotation Xrotation
			JOINT Spine1
			{
				OFFSET 0.000000 12.024086 0.248766
				CHANNELS 3 Zrotation Yrotation Xrotation
				JOINT Spine2
				{
					OFFSET -0.000000 11.503036 -0.491240
					CHANNELS 3 Zrotation Yrotation Xrotation
					JOINT Neck_virtual
					{
						OFFSET 0.000000 0.000000 0.000000
						CHANNELS 3 Zrotation Yrotation Xrotation
						JOINT Neck
						{
							OFFSET 0.000000 18.430687 -3.123054
							CHANNELS 3 Zrotation Yrotation Xrotation
							JOINT Head
							{
								OFFSET -0.000000 9.051071 1.034021
								CHANNELS 3 Zrotation Yrotation Xrotation
								End Site
								{
									OFFSET 0.000000 0.000000 0.000000
								}
							}
						}
					}
					JOINT LeftShoulder_virtual
					{
						OFFSET 0.000000 0.000000 0.000000
						CHANNELS 3 Zrotation Yrotation Xrotation
						JOINT LeftShoulder
						{
							OFFSET 6.197824 13.665230 -4.064723
							CHANNELS 3 Zrotation Yrotation Xrotation
							JOINT LeftArm
							{
								OFFSET 7.778132 -0.187073 -1.709282
								CHANNELS 3 Zrotation Yrotation Xrotation
								JOINT LeftForeArm
								{
									OFFSET 21.954697 0.000000 -2.041093
									CHANNELS 3 Zrotation Yrotation Xrotation
									JOINT LeftHand
									{
										OFFSET 22.992908 0.000000 -0.870901
										CHANNELS 3 Zrotation Yrotation Xrotation
										End Site
										{
											OFFSET 0.000000 0.000000 0.000000
										}
									}
								}
							}
						}
					}
					JOINT RightShoulder_virtual
					{
						OFFSET 0.000000 0.000000 0.000000
						CHANNELS 3 Zrotation Yrotation Xrotation
						JOINT RightShoulder
						{
							OFFSET -6.197824 13.665230 -4.064723
							CHANNELS 3 Zrotation Yrotation Xrotation
							JOINT RightArm
							{
								OFFSET -7.778132 -0.187073 -1.709282
								CHANNELS 3 Zrotation Yrotation Xrotation
								JOINT RightForeArm
								{
									OFFSET -21.954697 0.000000 -2.041093
									CHANNELS 3 Zrotation Yrotation Xrotation
									JOINT RightHand
									{
										OFFSET -22.992908 0.000000 -0.870901
										CHANNELS 3 Zrotation Yrotation Xrotation
										End Site
										{
											OFFSET 0.000000 0.000000 0.000000
										}
									}
								}
							}
						}
					}
				}
			}
		}
	}
}
MOTION
Frames: 14
Frame Time: 0.033333
-3.650030 81.354805 -29.005438 -179.935924 0.894589 -179.453453 -2.506289 -1.748155 10.238972 0.501419 10.144919 -26.971922 9.631041 6.597157 31.234206 -7.289536 -13.044774 -9.075563 0.000000 0.000000 0.000000 -2.734346 -2.021842 11.608239 1.251140 -3.601309 -24.724501 -2.777425 1.890906 31.968355 9.692899 5.838986 -4.738972 0.000000 0.000000 0.000000 3.715792 0.249072 -4.122786 -1.269909 -0.139256 0.699253 -0.432086 -2.088564 7.702141 0.016563 -0.013515 0.092160 -0.982554 -0.892491 8.752451 -1.156437 -2.971189 -13.599682 0.000000 0.000000 0.000000 0.529455 -0.248232 6.195511 -8.718163 -0.951326 5.241888 -64.745624 -1.210749 10.023997 4.588130 -34.228769 4.480960 0.000000 0.000000 0.000000 -3.561141 1.345687 5.494043 24.922035 -3.214475 4.971190 58.443463 0.956193 16.760912 -3.692445 25.662844 -6.505488 0.000000 0.000000 0.000000 
-3.675556 81.353867 -29.057789 -179.975690 1.096647 -179.141013 -2.574683 -1.373501 10.548758 0.343847 10.474192 -26.602422 9.696564 6.697863 31.559039 -7.650821 -13.482711 -8.829426 0.000000 0.000000 0.000000 -2.720760 -2.324566 11.939075 1.537280 -3.877571 -24.350458 -3.415263 1.887682 32.212347 9.146044 6.036419 -4.370621 0.000000 0.000000 0.000000 3.693699 0.260364 -4.331222 -1.269024 -0.127414 0.581719 -0.456008 -2.068732 7.651905 -0.026429 0.004192 0.093009 -0.960381 -0.833328 8.757441 -1.259129 -2.567763 -13.683971 0.000000 0.000000 0.000000 0.574810 -0.190651 6.204649 -8.750435 -0.907464 5.258012 -64.705831 -1.172039 10.054459 4.618084 -34.192733 4.455040 0.000000 0.000000 0.000000 -3.459045 1.351968 5.476605 24.899829 -3.230041 4.951735 58.395187 0.934889 16.716342 -3.623878 25.701956 -6.434989 0.000000 0.000000 0.000000 
-3.717052 81.345406 -29.129030 -179.955909 1.134646 -179.137844 -2.542885 -1.341114 10.544659 0.286126 10.493254 -26.551974 9.714193 6.743481 31.590608 -7.630534 -13.511652 -8.831756 0.000000 0.000000 0.000000 -2.386212 -2.313796 11.920596 0.984482 -3.853491 -24.286949 -3.056733 2.011136 32.197191 9.351196 5.770588 -4.405697 0.000000 0.000000 0.000000 3.695686 0.196477 -4.368592 -1.240020 -0.135360 0.565661 -0.441961 -2.029734 7.646093 -0.035803 0.089949 0.075303 -0.971338 -0.875805 8.764240 -1.207320 -2.836791 -13.699825 0.000000 0.000000 0.000000 0.589429 -0.250368 6.234372 -8.762497 -0.925163 5.321655 -64.745788 -1.176927 10.162124 4.581417 -34.209627 4.454488 0.000000 0.000000 0.000000 -3.468556 1.314845 5.433273 24.875826 -3.218692 4.953710 58.379184 0.827521 16.716973 -3.556555 25.743903 -6.343273 0.000000 0.000000 0.000000 
-3.767694 81.335258 -29.199152 -179.995115 1.212860 -179.128992 -2.594423 -1.289175 10.539740 0.269144 10.515012 -26.503880 9.706288 6.711956 31.609771 -7.585811 -13.471612 -8.844287 0.000000 0.000000 0.000000 -2.512816 -2.265011 11.924563 1.052383 -3.812566 -24.237823 -3.141520 2.007134 32.169204 9.332562 5.867492 -4.415121 0.000000 0.000000 0.000000 3.675619 0.294669 -4.447662 -1.237516 -0.158456 0.548347 -0.467980 -2.076078 7.662414 -0.019000 0.005543 0.101743 -0.975636 -0.914156 8.738893 -1.210313 -2.902150 -13.627523 0.000000 0.000000 0.000000 0.555549 -0.104713 6.223756 -8.747108 -0.975436 5.254817 -64.794118 -1.119566 10.051308 4.730793 -34.207302 4.455084 0.000000 0.000000 0.000000 -3.468129 1.253402 5.507466 24.886870 -3.192071 4.940932 58.418362 0.899488 16.572768 -3.781964 25.627944 -6.605460 0.000000 0.000000 0.000000 
-3.818073 81.327721 -29.256754 -179.955322 1.302358 -179.126506 -2.566739 -1.213962 10.542545 0.221490 10.557154 -26.473318 9.731289 6.793050 31.643262 -7.626500 -13.516981 -8.852962 0.000000 0.000000 0.000000 -2.430106 -2.208487 11.930267 0.941640 -3.778011 -24.199287 -3.080814 2.115731 32.140609 9.393696 5.813777 -4.433193 0.000000 0.000000 0.000000 3.664770 0.334247 -4.454384 -1.206074 -0.183922 0.533658 -0.429686 -2.064585 7.677369 0.013650 0.048226 0.045800 -1.026079 -0.916810 8.754084 -1.206147 -2.892671 -13.687078 0.000000 0.000000 0.000000 0.561412 -0.194311 6.185697 -8.811875 -0.925836 5.269099 -64.808742 -1.097647 10.082757 4.636895 -34.231443 4.406954 0.000000 0.000000 0.000000 -3.508153 1.281799 5.419365 24.901509 -3.283878 4.939318 58.432282 0.828102 16.575312 -3.702900 25.609475 -6.532535 0.000000 0.000000 0.000000 
-3.869574 81.326904 -29.294249 179.984118 1.406314 -179.125386 -2.650618 -1.149761 10.544788 0.230082 10.581020 -26.449757 9.677569 6.760019 31.655741 -7.576801 -13.456801 -8.882431 0.000000 0.000000 0.000000 -2.514847 -2.131826 11.941778 0.941583 -3.747079 -24.178991 -3.145897 2.077237 32.130217 9.467536 5.852606 -4.437230 0.000000 0.000000 0.000000 3.641344 0.443774 -4.520248 -1.216678 -0.187736 0.556455 -0.457646 -2.069667 7.662877 -0.016211 0.010284 0.040417 -0.983911 -0.896024 8.816021 -1.176252 -2.858228 -13.717742 0.000000 0.000000 0.000000 0.553279 -0.178217 6.263821 -8.770642 -1.049613 5.278250 -64.705838 -1.117997 10.206597 4.562402 -34.278991 4.475259 0.000000 0.000000 0.000000 -3.532143 1.331133 5.463994 25.012291 -3.275583 4.956261 58.357382 0.788737 16.590695 -3.514603 25.722651 -6.225261 0.000000 0.000000 0.000000 
-3.924019 81.330658 -29.316895 179.944558 1.499568 -179.127530 -2.722108 -1.086068 10.546457 0.193903 10.610839 -26.443373 9.697105 6.810268 31.679237 -7.619330 -13.452196 -8.881374 0.000000 0.000000 0.000000 -2.558237 -2.052186 11.954559 0.849695 -3.647641 -24.167438 -2.853912 2.377874 32.122154 9.367145 5.546081 -4.459831 0.000000 0.000000 0.000000 3.619214 0.445655 -4.537952 -1.235996 -0.257967 0.550584 -0.465008 -2.103571 7.658240 -0.023407 -0.017192 0.049791 -0.931405 -0.839645 8.799998 -1.179173 -2.801340 -13.708320 0.000000 0.000000 0.000000 0.603341 -0.152235 6.259736 -8.832093 -0.936346 5.245487 -64.719683 -1.148015 10.194866 4.619564 -34.214634 4.446465 0.000000 0.000000 0.000000 -3.438237 1.414970 5.522254 24.951205 -3.273882 4.930956 58.448982 0.726074 16.566731 -3.755320 25.673320 -6.539556 0.000000 0.000000 0.000000 
-3.981696 81.336380 -29.329226 -179.999513 1.595012 -179.135071 -2.692762 -1.052421 10.549464 0.168614 10.630872 -26.440407 9.709012 6.859080 31.716724 -7.601985 -13.429667 -8.901491 0.000000 0.000000 0.000000 -2.339980 -2.022158 11.953640 0.590127 -3.637638 -24.171107 -2.687203 2.548985 32.138256 9.436649 5.398169 -4.463257 0.000000 0.000000 0.000000 3.652466 0.462929 -4.467609 -1.228605 -0.255524 0.518652 -0.467266 -2.088368 7.627140 -0.036665 -0.012019 0.051941 -0.933689 -0.861632 8.742284 -1.146574 -2.879075 -13.652955 0.000000 0.000000 0.000000 0.605905 -0.128657 6.256374 -8.801050 -0.974826 5.201635 -64.716862 -1.192706 10.318655 4.705195 -34.180432 4.326678 0.000000 0.000000 0.000000 -3.396292 1.387115 5.472644 24.932506 -3.236319 4.830969 58.455279 0.517780 16.565695 -3.625694 25.772677 -6.417804 0.000000 0.000000 0.000000 
-4.040840 81.342354 -29.338068 -179.977179 1.668130 -179.136041 -2.706634 -1.042677 10.548762 0.164374 10.643748 -26.436683 9.677251 6.846660 31.749195 -7.532885 -13.366078 -8.929458 0.000000 0.000000 0.000000 -2.228509 -2.014677 11.951484 0.420321 -3.633437 -24.183043 -2.612120 2.664235 32.154922 9.495827 5.316798 -4.452231 0.000000 0.000000 0.000000 3.680941 0.541783 -4.514854 -1.213560 -0.264299 0.494084 -0.446727 -2.057190 7.681814 -0.011007 0.023688 0.036664 -0.996373 -0.908352 8.824892 -1.149728 -2.954761 -13.615856 0.000000 0.000000 0.000000 0.560889 -0.259464 6.348317 -8.826179 -1.080631 5.221103 -64.636109 -1.282774 10.411186 4.678429 -34.201421 4.361116 0.000000 0.000000 0.000000 -3.529603 1.333862 5.504888 25.093596 -3.328839 4.909861 58.459166 0.619918 16.670048 -3.832140 25.753587 -6.641209 0.000000 0.000000 0.000000 
-4.100344 81.344482 -29.351686 179.941675 1.770762 -179.136929 -2.805677 -1.037614 10.550660 0.144420 10.660163 -26.430247 9.623198 6.842332 31.773354 -7.476200 -13.273908 -8.959115 0.000000 0.000000 0.000000 -2.487413 -1.997383 11.958469 0.615658 -3.599676 -24.205251 -2.861650 2.527482 32.169867 9.578288 5.538878 -4.402051 0.000000 0.000000 0.000000 3.639305 0.475780 -4.528036 -1.261851 -0.323358 0.492637 -0.450920 -2.108954 7.649956 -0.009344 -0.031715 0.117319 -0.997458 -0.888845 8.743872 -1.137531 -2.999846 -13.574309 0.000000 0.000000 0.000000 0.566513 -0.192844 6.148081 -8.837620 -0.915002 5.241512 -64.698052 -1.251438 10.423825 4.769571 -34.214637 4.265747 0.000000 0.000000 0.000000 -3.539177 1.402318 5.506140 25.053479 -3.253443 4.907359 58.471187 0.593049 16.710847 -3.831529 25.734297 -6.660882 0.000000 0.000000 0.000000 
-4.171525 81.344406 -29.374947 -179.984883 1.795718 -179.131861 -2.759526 -1.050010 10.554611 0.139446 10.677364 -26.419703 9.594456 6.861954 31.799506 -7.430051 -13.217557 -8.996797 0.000000 0.000000 0.000000 -2.132537 -2.041034 11.954921 0.209560 -3.630567 -24.213046 -2.591836 2.818024 32.176738 9.677498 5.335153 -4.410409 0.000000 0.000000 0.000000 3.684155 0.537291 -4.595110 -1.228684 -0.333126 0.534429 -0.453355 -2.079683 7.772788 0.027741 0.002656 0.063298 -0.994451 -0.877371 8.703228 -1.115927 -2.960831 -13.634559 0.000000 0.000000 0.000000 0.519019 -0.166764 6.202042 -8.795011 -1.046428 5.203189 -64.623575 -1.318012 10.502497 4.631554 -34.243338 4.344228 0.000000 0.000000 0.000000 -3.502750 1.328471 5.434332 24.933797 -3.256641 4.884617 58.433348 0.455057 16.740254 -3.636318 25.805114 -6.344150 0.000000 0.000000 0.000000 
-4.244167 81.342873 -29.401741 179.984938 1.834514 -179.137721 -2.799308 -1.057130 10.566874 0.105983 10.686020 -26.403797 9.556037 6.888563 31.815001 -7.401960 -13.152806 -9.028834 0.000000 0.000000 0.000000 -2.106573 -2.062955 11.964948 0.097491 -3.649190 -24.219386 -2.606087 2.886848 32.180870 9.778339 5.386919 -4.389292 0.000000 0.000000 0.000000 3.668289 0.495071 -4.511544 -1.243905 -0.340815 0.499958 -0.465685 -2.091060 7.627055 0.002746 -0.020372 0.099257 -0.982199 -0.877440 8.711239 -1.144222 -2.876331 -13.694067 0.000000 0.000000 0.000000 0.575510 -0.122201 6.176029 -8.822041 -0.893244 5.203161 -64.696576 -1.312801 10.494600 4.774286 -34.218230 4.244223 0.000000 0.000000 0.000000 -3.516427 1.371476 5.420223 24.981483 -3.353234 4.868138 58.468325 0.437062 16.641807 -3.819990 25.733619 -6.477155 0.000000 0.000000 0.000000 
-4.317030 81.341820 -29.422550 -179.999623 1.842931 -179.137912 -2.796469 -1.058394 10.576130 0.083263 10.704973 -26.392896 9.544823 6.920952 31.822183 -7.409177 -13.125655 -9.051678 0.000000 0.000000 0.000000 -2.213854 -2.069955 11.979863 0.217146 -3.630327 -24.223155 -2.741707 2.873146 32.174972 9.786191 5.455495 -4.359907 0.000000 0.000000 0.000000 3.667623 0.505917 -4.536824 -1.225464 -0.318874 0.467454 -0.447425 -2.086359 7.629595 -0.025988 -0.015223 0.178390 -0.957463 -0.870347 8.721144 -1.143407 -2.979495 -13.617827 0.000000 0.000000 0.000000 0.642597 -0.157359 6.153596 -8.867856 -0.984999 5.196782 -64.682192 -1.240792 10.474698 4.777646 -34.203125 4.256443 0.000000 0.000000 0.000000 -3.458753 1.312359 5.422557 24.982540 -3.368518 4.886848 58.433498 0.461980 16.611474 -3.827049 25.689759 -6.488824 0.000000 0.000000 0.000000 
-4.387265 81.343262 -29.426977 179.941115 1.825920 -179.138814 -2.859518 -1.070658 10.578278 0.053044 10.690732 -26.388610 9.485920 6.902759 31.816435 -7.359541 -13.056298 -9.079742 0.000000 0.000000 0.000000 -2.361640 -2.071666 11.988962 0.312579 -3.648933 -24.226987 -2.933935 2.755507 32.171605 9.857954 5.631666 -4.323747 0.000000 0.000000 0.000000 3.636268 0.480190 -4.569421 -1.248280 -0.320061 0.490198 -0.462649 -2.069428 7.670269 -0.041536 -0.010114 0.109670 -0.923449 -0.833379 8.766563 -1.134150 -2.984725 -13.660980 0.000000 0.000000 0.000000 0.666804 -0.225540 6.200266 -8.840411 -0.932357 5.151333 -64.789071 -1.176570 10.514030 4.851965 -34.194143 4.168033 0.000000 0.000000 0.000000 -3.402064 1.370826 5.504834 25.041533 -3.390827 4.909008 58.357833 0.513219 16.575542 -3.871847 25.700947 -6.544437 0.000000 0.000000 0.000000 
